<svg width="24" height="24" viewBox="0 0 24 24" fill="none" xmlns="http://www.w3.org/2000/svg">
<g clip-path="url(#clip0_182_12049)">
<path d="M10.5398 15.49C11.1358 16.085 11.1358 17.051 10.5398 17.647L5.03177 23.155C3.84377 24.343 1.89377 24.305 0.753766 23.04C-0.314234 21.854 -0.147234 19.997 0.980766 18.869L6.37077 13.479C6.96577 12.884 7.93177 12.883 8.52677 13.479L10.5388 15.491L10.5398 15.49ZM15.9518 11.003C17.2148 11.005 18.4958 11.504 19.4388 12.448C19.9998 13 20.7518 12.894 20.9998 12.723C22.8188 11.464 24.0178 9.38002 24.0178 7.00002C24.0178 6.58702 23.9808 6.18302 23.9118 5.79002C23.7758 5.02202 22.8048 4.74902 22.2528 5.30002L20.6058 6.94702C19.4598 8.09302 17.9528 8.26902 16.9408 7.44102C15.7768 6.48902 15.7128 4.76902 16.7498 3.73202L18.7148 1.76702C19.2658 1.21502 18.9958 0.241023 18.2278 0.105023C17.8348 0.0350234 17.4308 -0.000976562 17.0178 -0.000976562C14.0748 -0.000976562 11.5628 1.81702 10.5288 4.39002C10.3218 4.90402 10.4428 5.49502 10.8348 5.88602L15.9518 11.002V11.003ZM18.0248 13.862C17.2638 13.101 16.1938 12.855 15.2208 13.101L7.99877 5.88002V3.99902C7.99877 3.24702 7.59677 2.55102 6.94477 2.17502L3.53877 0.211023C2.92077 -0.145977 2.13977 -0.0429766 1.63477 0.462023L0.462766 1.63402C-0.0432342 2.13902 -0.146234 2.92102 0.210766 3.53902L2.17577 6.94602C2.55177 7.59802 3.24677 7.99902 3.99877 7.99902H5.87677L13.1008 15.222C12.8558 16.194 13.1008 17.264 13.8618 18.025L18.9188 23.028C20.0658 24.175 22.0468 24.284 23.1928 23.136C24.3408 21.986 24.1958 20.269 23.1918 18.974L18.0248 13.862Z" fill="#5ED05E"/>
</g>
<defs>
<clipPath id="clip0_182_12049">
<rect width="24" height="24" fill="white"/>
</clipPath>
</defs>
</svg>
