<svg width="30" height="43" viewBox="0 0 30 43" fill="none" xmlns="http://www.w3.org/2000/svg">
<path d="M15.5799 37H9.91304L12.8592 26H6.77098C6.1826 25.9998 5.60243 25.8711 5.07683 25.6242C4.55124 25.3774 4.09479 25.0192 3.74397 24.5783C3.39314 24.1374 3.15766 23.626 3.05635 23.085C2.95503 22.544 2.99069 21.9883 3.16048 21.4625L8.81855 4H22.7641L18.3449 15H24.2711C24.9453 15.0004 25.6069 15.1713 26.1854 15.4946C26.7639 15.8179 27.2377 16.2815 27.5565 16.836C27.8753 17.3906 28.0272 18.0154 27.996 18.6441C27.9648 19.2728 27.7517 19.8818 27.3793 20.4065L15.5799 37Z" fill="white" fill-opacity="0.5"/>
</svg>
