<svg width="34" height="34" viewBox="0 0 34 34" fill="none" xmlns="http://www.w3.org/2000/svg">
<g clip-path="url(#clip0_98_8519)">
<path d="M34 34.0001H0V32.5834C0 30.2403 1.90683 28.3334 4.25 28.3334H29.75C32.0932 28.3334 34 30.2403 34 32.5834V34.0001ZM5.26717 7.3696L1.98333 4.2246L0.0255 6.27027L3.30792 9.41527L5.26717 7.3696ZM10.7383 3.83785L9.01992 -0.0112305L6.43308 1.14194L8.1515 4.99102L10.7383 3.83785ZM33.9745 6.27027L32.0153 4.22602L28.7328 7.37102L30.6921 9.41527L33.9745 6.27027ZM27.5669 1.14335L24.9801 -0.0112305L23.2617 3.83785L25.8485 4.99102L27.5669 1.14335ZM29.75 18.4168C29.75 11.3859 24.0309 5.66677 17 5.66677C9.96908 5.66677 4.25 11.3859 4.25 18.4168V25.5001H29.75V18.4168ZM17 15.5834C15.4374 15.5834 14.1667 16.8542 14.1667 18.4168H11.3333C11.3333 15.2916 13.8748 12.7501 17 12.7501V15.5834Z" fill="white" fill-opacity="0.5"/>
</g>
<defs>
<clipPath id="clip0_98_8519">
<rect width="34" height="34" fill="white"/>
</clipPath>
</defs>
</svg>
