<svg width="22" height="31" viewBox="0 0 22 31" fill="none" xmlns="http://www.w3.org/2000/svg">
<path d="M11.0576 27H6.97739L9.09861 19H4.7151C4.29147 18.9998 3.87375 18.9062 3.49532 18.7267C3.11689 18.5472 2.78825 18.2867 2.53566 17.966C2.28306 17.6454 2.11352 17.2734 2.04057 16.88C1.96762 16.4865 1.9933 16.0824 2.11554 15.7L6.18935 3H16.2302L13.0483 11H17.3152C17.8006 11.0003 18.2769 11.1246 18.6935 11.3597C19.11 11.5948 19.4511 11.932 19.6807 12.3353C19.9102 12.7386 20.0196 13.193 19.9971 13.6503C19.9746 14.1075 19.8212 14.5504 19.5531 14.932L11.0576 27Z" fill="#5ED05E"/>
</svg>
