<svg width="15" height="16" viewBox="0 0 15 16" fill="none" xmlns="http://www.w3.org/2000/svg">
<g clip-path="url(#clip0_43_7938)">
<path d="M14.1606 5.13699L8.84812 0.980117C8.05375 0.358867 6.94625 0.360117 6.15188 0.980117L0.83875 5.13762C0.305625 5.55574 0 6.18387 0 6.86012V15.5001H15V6.86012C15 6.18387 14.6944 5.55574 14.1606 5.13699ZM13.125 13.6251H1.875V6.86012C1.875 6.76387 1.91875 6.67324 1.995 6.61387L7.3075 2.45699C7.42125 2.36762 7.58 2.36762 7.69187 2.45699L13.0037 6.61324C13.0806 6.67324 13.1244 6.76324 13.1244 6.86012L13.125 13.6251Z" fill="white"/>
</g>
<defs>
<clipPath id="clip0_43_7938">
<rect width="15" height="15" fill="white" transform="translate(0 0.5)"/>
</clipPath>
</defs>
</svg>
