<svg width="22" height="22" viewBox="0 0 22 22" fill="none" xmlns="http://www.w3.org/2000/svg">
<path d="M10.0835 6.41658H11.9168V8.24992H10.0835V6.41658ZM10.0835 10.0833H11.9168V15.5833H10.0835V10.0833ZM11.0002 1.83325C5.94016 1.83325 1.8335 5.93992 1.8335 10.9999C1.8335 16.0599 5.94016 20.1666 11.0002 20.1666C16.0602 20.1666 20.1668 16.0599 20.1668 10.9999C20.1668 5.93992 16.0602 1.83325 11.0002 1.83325ZM11.0002 18.3333C6.95766 18.3333 3.66683 15.0424 3.66683 10.9999C3.66683 6.95742 6.95766 3.66659 11.0002 3.66659C15.0427 3.66659 18.3335 6.95742 18.3335 10.9999C18.3335 15.0424 15.0427 18.3333 11.0002 18.3333Z" fill="#29B6F6"/>
</svg>
