<svg width="15" height="15" viewBox="0 0 15 15" fill="none" xmlns="http://www.w3.org/2000/svg">
<g clip-path="url(#clip0_210_12355)">
<path d="M7.50001 0.0131836C5.83213 0.0151688 4.23314 0.678652 3.05383 1.85808C1.87453 3.0375 1.2112 4.63656 1.20938 6.30443C1.20938 9.60068 6.31313 14.0101 6.89688 14.5026L7.50126 15.0132L8.10563 14.5026C8.68813 14.0101 13.7931 9.60068 13.7931 6.30443C13.7913 4.63612 13.1276 3.03669 11.9478 1.8572C10.7679 0.677699 9.16832 0.0145071 7.50001 0.0131836ZM7.50001 12.5401C5.58438 10.7951 3.08313 7.96006 3.08313 6.30443C3.08313 5.13301 3.54848 4.00956 4.3768 3.18123C5.20513 2.35291 6.32858 1.88756 7.50001 1.88756C8.67143 1.88756 9.79488 2.35291 10.6232 3.18123C11.4515 4.00956 11.9169 5.13301 11.9169 6.30443C11.9169 7.95693 9.41501 10.7932 7.50001 12.5401Z" fill="#252736"/>
<path d="M7.49999 8.12442C8.53449 8.12442 9.37311 7.2858 9.37311 6.2513C9.37311 5.2168 8.53449 4.37817 7.49999 4.37817C6.46549 4.37817 5.62686 5.2168 5.62686 6.2513C5.62686 7.2858 6.46549 8.12442 7.49999 8.12442Z" fill="#252736"/>
</g>
<defs>
<clipPath id="clip0_210_12355">
<rect width="15" height="15" fill="white"/>
</clipPath>
</defs>
</svg>
