<svg width="15" height="16" viewBox="0 0 15 16" fill="none" xmlns="http://www.w3.org/2000/svg">
<g clip-path="url(#clip0_43_7963)">
<path d="M7.49961 0.513184C5.83173 0.515169 4.23275 1.17865 3.05344 2.35808C1.87413 3.5375 1.2108 5.13656 1.20898 6.80443C1.20898 10.1007 6.31273 14.5101 6.89648 15.0026L7.50086 15.5132L8.10523 15.0026C8.68773 14.5101 13.7927 10.1007 13.7927 6.80443C13.7909 5.13612 13.1272 3.53669 11.9474 2.3572C10.7675 1.1777 9.16792 0.514507 7.49961 0.513184ZM7.49961 13.0401C5.58398 11.2951 3.08273 8.46006 3.08273 6.80443C3.08273 5.63301 3.54808 4.50956 4.37641 3.68123C5.20473 2.85291 6.32818 2.38756 7.49961 2.38756C8.67104 2.38756 9.79449 2.85291 10.6228 3.68123C11.4511 4.50956 11.9165 5.63301 11.9165 6.80443C11.9165 8.45693 9.41461 11.2932 7.49961 13.0401Z" fill="white"/>
<path d="M7.50008 8.62442C8.53458 8.62442 9.3732 7.7858 9.3732 6.7513C9.3732 5.7168 8.53458 4.87817 7.50008 4.87817C6.46558 4.87817 5.62695 5.7168 5.62695 6.7513C5.62695 7.7858 6.46558 8.62442 7.50008 8.62442Z" fill="white"/>
</g>
<defs>
<clipPath id="clip0_43_7963">
<rect width="15" height="15" fill="white" transform="translate(0 0.5)"/>
</clipPath>
</defs>
</svg>
