<svg width="15" height="16" viewBox="0 0 15 16" fill="none" xmlns="http://www.w3.org/2000/svg">
<g clip-path="url(#clip0_191_11655)">
<path d="M6.25 6.61035H4.375V12.2354H6.25V6.61035Z" fill="#5ED05E"/>
<path d="M10.625 8.48535H8.75V12.2354H10.625V8.48535Z" fill="#5ED05E"/>
<path d="M15 5.98535H13.125V12.2354H15V5.98535Z" fill="#5ED05E"/>
<path d="M10.0801 6.00591C9.70504 6.00585 9.34534 5.85679 9.08014 5.59153L6.48264 2.99653L5.18764 4.29778L3.85889 2.96903L5.48076 1.34716C5.7506 1.0891 6.10958 0.945068 6.48295 0.945068C6.85632 0.945068 7.2153 1.0891 7.48514 1.34716L10.0801 3.94153L12.7745 1.24716L14.1008 2.57341L11.082 5.59153C10.9506 5.72321 10.7944 5.82761 10.6224 5.89872C10.4505 5.96983 10.2662 6.00626 10.0801 6.00591Z" fill="#5ED05E"/>
<path d="M15 15.9854H2.1875C1.60734 15.9854 1.05094 15.7549 0.640704 15.3446C0.230468 14.9344 0 14.378 0 13.7979L0 0.985352H1.875V13.7979C1.875 13.8807 1.90792 13.9602 1.96653 14.0188C2.02513 14.0774 2.10462 14.1104 2.1875 14.1104H15V15.9854Z" fill="#5ED05E"/>
</g>
<defs>
<clipPath id="clip0_191_11655">
<rect width="15" height="15" fill="white" transform="translate(0 0.985352)"/>
</clipPath>
</defs>
</svg>
