<svg width="15" height="16" viewBox="0 0 15 16" fill="none" xmlns="http://www.w3.org/2000/svg">
<g clip-path="url(#clip0_43_7944)">
<path d="M6.25 6.125H4.375V11.75H6.25V6.125Z" fill="white"/>
<path d="M10.625 8H8.75V11.75H10.625V8Z" fill="white"/>
<path d="M15 5.5H13.125V11.75H15V5.5Z" fill="white"/>
<path d="M10.0796 5.52055C9.70456 5.52049 9.34485 5.37144 9.07965 5.10618L6.48215 2.51118L5.18715 3.81243L3.8584 2.48368L5.48027 0.861804C5.75011 0.603744 6.10909 0.459717 6.48246 0.459717C6.85583 0.459717 7.21481 0.603744 7.48465 0.861804L10.0796 3.45618L12.774 0.761804L14.1003 2.08805L11.0815 5.10618C10.9501 5.23786 10.7939 5.34225 10.6219 5.41337C10.45 5.48448 10.2657 5.52091 10.0796 5.52055Z" fill="white"/>
<path d="M15 15.5H2.1875C1.60734 15.5 1.05094 15.2695 0.640704 14.8593C0.230468 14.4491 0 13.8927 0 13.3125L0 0.5H1.875V13.3125C1.875 13.3954 1.90792 13.4749 1.96653 13.5335C2.02513 13.5921 2.10462 13.625 2.1875 13.625H15V15.5Z" fill="white"/>
</g>
<defs>
<clipPath id="clip0_43_7944">
<rect width="15" height="15" fill="white" transform="translate(0 0.5)"/>
</clipPath>
</defs>
</svg>
