<svg width="15" height="15" viewBox="0 0 15 15" fill="none" xmlns="http://www.w3.org/2000/svg">
<g clip-path="url(#clip0_210_12340)">
<path d="M6.25 5.625H4.375V11.25H6.25V5.625Z" fill="#252736"/>
<path d="M10.625 7.5H8.75V11.25H10.625V7.5Z" fill="#252736"/>
<path d="M15 5H13.125V11.25H15V5Z" fill="#252736"/>
<path d="M10.08 5.02055C9.70492 5.02049 9.34521 4.87144 9.08001 4.60618L6.48251 2.01118L5.18751 3.31243L3.85876 1.98368L5.48064 0.361804C5.75047 0.103744 6.10946 -0.0402832 6.48283 -0.0402832C6.8562 -0.0402832 7.21518 0.103744 7.48501 0.361804L10.08 2.95618L12.7744 0.261804L14.1006 1.58805L11.0819 4.60618C10.9504 4.73786 10.7942 4.84225 10.6223 4.91337C10.4504 4.98448 10.2661 5.02091 10.08 5.02055Z" fill="#252736"/>
<path d="M15 15H2.1875C1.60734 15 1.05094 14.7695 0.640704 14.3593C0.230468 13.9491 0 13.3927 0 12.8125L0 0H1.875V12.8125C1.875 12.8954 1.90792 12.9749 1.96653 13.0335C2.02513 13.0921 2.10462 13.125 2.1875 13.125H15V15Z" fill="#252736"/>
</g>
<defs>
<clipPath id="clip0_210_12340">
<rect width="15" height="15" fill="white"/>
</clipPath>
</defs>
</svg>
