<svg width="15" height="16" viewBox="0 0 15 16" fill="none" xmlns="http://www.w3.org/2000/svg">
<g clip-path="url(#clip0_43_8313)">
<path d="M11.9125 4.81953L7.49996 0.503906L3.08059 4.82703C0.643711 7.26328 0.643711 11.2289 3.08059 13.6658C4.26121 14.8464 5.82996 15.4964 7.49996 15.4964C9.16996 15.4964 10.7393 14.8464 11.9193 13.6658C14.3562 11.2295 14.3562 7.26391 11.9118 4.82016L11.9125 4.81953ZM10.5943 12.3395C9.76809 13.1658 8.66934 13.6208 7.50059 13.6208C6.33184 13.6208 5.23309 13.1658 4.40684 12.3395C2.70121 10.6339 2.70121 7.85828 4.39934 6.15953L7.50059 3.12641L10.5943 6.15203C12.3 7.85766 12.3 10.6333 10.5943 12.3389V12.3395ZM9.26809 8.10703C10.2443 9.08328 10.2443 10.6664 9.26809 11.6427C8.77996 12.1308 8.13996 12.3752 7.50059 12.3752C6.86059 12.3752 6.22121 12.1308 5.73246 11.6427C4.75621 10.6664 4.75621 9.08328 5.73246 8.10703L7.49996 6.37828L9.26746 8.10703H9.26809Z" fill="white"/>
</g>
<defs>
<clipPath id="clip0_43_8313">
<rect width="15" height="15" fill="white" transform="translate(0 0.5)"/>
</clipPath>
</defs>
</svg>
