<svg width="15" height="16" viewBox="0 0 15 16" fill="none" xmlns="http://www.w3.org/2000/svg">
<g clip-path="url(#clip0_104_10586)">
<path d="M11.9125 5.30464L7.49996 0.989014L3.08059 5.31214C0.643711 7.74839 0.643711 11.714 3.08059 14.1509C4.26121 15.3315 5.82996 15.9815 7.49996 15.9815C9.16996 15.9815 10.7393 15.3315 11.9193 14.1509C14.3562 11.7146 14.3562 7.74901 11.9118 5.30526L11.9125 5.30464ZM10.5943 12.8246C9.76809 13.6509 8.66934 14.1059 7.50059 14.1059C6.33184 14.1059 5.23309 13.6509 4.40684 12.8246C2.70121 11.119 2.70121 8.34339 4.39934 6.64464L7.50059 3.61151L10.5943 6.63714C12.3 8.34276 12.3 11.1184 10.5943 12.824V12.8246ZM9.26809 8.59214C10.2443 9.56839 10.2443 11.1515 9.26809 12.1278C8.77996 12.6159 8.13996 12.8603 7.50059 12.8603C6.86059 12.8603 6.22121 12.6159 5.73246 12.1278C4.75621 11.1515 4.75621 9.56839 5.73246 8.59214L7.49996 6.86339L9.26746 8.59214H9.26809Z" fill="#5ED05E"/>
</g>
<defs>
<clipPath id="clip0_104_10586">
<rect width="15" height="15" fill="white" transform="translate(0 0.985352)"/>
</clipPath>
</defs>
</svg>
