<svg width="15" height="15" viewBox="0 0 15 15" fill="none" xmlns="http://www.w3.org/2000/svg">
<path d="M11.9125 4.31929L7.49999 0.00366211L3.08062 4.32679C0.643741 6.76304 0.643741 10.7287 3.08062 13.1655C4.26124 14.3462 5.82999 14.9962 7.49999 14.9962C9.16999 14.9962 10.7394 14.3462 11.9194 13.1655C14.3562 10.7293 14.3562 6.76366 11.9119 4.31991L11.9125 4.31929ZM10.5944 11.8393C9.76812 12.6655 8.66937 13.1205 7.50062 13.1205C6.33187 13.1205 5.23312 12.6655 4.40687 11.8393C2.70124 10.1337 2.70124 7.35804 4.39937 5.65929L7.50062 2.62616L10.5944 5.65179C12.3 7.35741 12.3 10.133 10.5944 11.8387V11.8393ZM9.26812 7.60679C10.2444 8.58304 10.2444 10.1662 9.26812 11.1424C8.77999 11.6305 8.13999 11.8749 7.50062 11.8749C6.86062 11.8749 6.22124 11.6305 5.73249 11.1424C4.75624 10.1662 4.75624 8.58304 5.73249 7.60679L7.49999 5.87804L9.26749 7.60679H9.26812Z" fill="#252736"/>
</svg>
