<svg width="15" height="16" viewBox="0 0 15 16" fill="none" xmlns="http://www.w3.org/2000/svg">
<g clip-path="url(#clip0_43_7958)">
<path d="M6.50625 13.3221C6.7075 13.9289 7.01937 14.4846 7.42188 14.9633C7.19875 15.0683 7.00187 15.1539 6.84812 15.2158L6.21 15.4733L5.59438 15.1646C4.28188 14.5083 0 12.0496 0 7.97769V4.12645C0 3.21395 0.583125 2.40707 1.45063 2.11895L6.25 0.52832L11.0494 2.11895C11.9175 2.40707 12.5 3.21395 12.5 4.12645V6.91395C12.1 6.81082 11.6825 6.7502 11.25 6.7502C11.0381 6.7502 10.83 6.7677 10.625 6.79332V4.12645C10.625 4.02145 10.56 3.93207 10.4587 3.89895L6.25 2.50395L2.04125 3.89895C1.94187 3.93207 1.875 4.02332 1.875 4.12645V7.97769C1.875 10.8546 5.08875 12.7921 6.2925 13.4164C6.3575 13.3889 6.43062 13.3564 6.50625 13.3221ZM15 11.7502C15 13.8214 13.3212 15.5002 11.25 15.5002C9.17875 15.5002 7.5 13.8214 7.5 11.7502C7.5 9.67895 9.17875 8.0002 11.25 8.0002C13.3212 8.0002 15 9.67895 15 11.7502ZM11.875 13.0002H10.625V14.2502H11.875V13.0002ZM11.875 9.2502H10.625V12.3752H11.875V9.2502Z" fill="white"/>
</g>
<defs>
<clipPath id="clip0_43_7958">
<rect width="15" height="15" fill="white" transform="translate(0 0.5)"/>
</clipPath>
</defs>
</svg>
