<svg width="15" height="16" viewBox="0 0 15 16" fill="none" xmlns="http://www.w3.org/2000/svg">
<g clip-path="url(#clip0_191_11663)">
<path d="M13.125 15.9854H11.25V12.8604C11.25 12.5288 11.1183 12.2109 10.8839 11.9765C10.6495 11.742 10.3315 11.6104 10 11.6104H5C4.66848 11.6104 4.35054 11.742 4.11612 11.9765C3.8817 12.2109 3.75 12.5288 3.75 12.8604V15.9854H1.875V12.8604C1.87599 12.0319 2.20555 11.2376 2.79139 10.6517C3.37722 10.0659 4.1715 9.73634 5 9.73535H10C10.8285 9.73634 11.6228 10.0659 12.2086 10.6517C12.7944 11.2376 13.124 12.0319 13.125 12.8604V15.9854Z" fill="#5ED05E"/>
<path d="M7.5 8.48535C6.75832 8.48535 6.0333 8.26542 5.41661 7.85336C4.79993 7.44131 4.31928 6.85564 4.03545 6.17042C3.75162 5.48519 3.67736 4.73119 3.82206 4.00376C3.96675 3.27634 4.3239 2.60815 4.84835 2.0837C5.3728 1.55926 6.04098 1.2021 6.76841 1.05741C7.49584 0.912714 8.24984 0.986976 8.93506 1.27081C9.62029 1.55463 10.206 2.03528 10.618 2.65196C11.0301 3.26865 11.25 3.99367 11.25 4.73535C11.249 5.72961 10.8536 6.68286 10.1506 7.38591C9.44751 8.08895 8.49426 8.48436 7.5 8.48535ZM7.5 2.86035C7.12916 2.86035 6.76665 2.97032 6.45831 3.17635C6.14997 3.38238 5.90964 3.67521 5.76773 4.01782C5.62581 4.36043 5.58868 4.73743 5.66103 5.10115C5.73338 5.46486 5.91195 5.79896 6.17418 6.06118C6.4364 6.3234 6.77049 6.50198 7.13421 6.57433C7.49792 6.64667 7.87492 6.60954 8.21753 6.46763C8.56014 6.32571 8.85298 6.08539 9.05901 5.77705C9.26503 5.46871 9.375 5.10619 9.375 4.73535C9.375 4.23807 9.17746 3.76116 8.82583 3.40953C8.4742 3.0579 7.99728 2.86035 7.5 2.86035Z" fill="#5ED05E"/>
</g>
<defs>
<clipPath id="clip0_191_11663">
<rect width="15" height="15" fill="white" transform="translate(0 0.985352)"/>
</clipPath>
</defs>
</svg>
