<svg width="15" height="16" viewBox="0 0 15 16" fill="none" xmlns="http://www.w3.org/2000/svg">
<g clip-path="url(#clip0_43_7953)">
<path d="M13.125 15.5H11.25V12.375C11.25 12.0435 11.1183 11.7255 10.8839 11.4911C10.6495 11.2567 10.3315 11.125 10 11.125H5C4.66848 11.125 4.35054 11.2567 4.11612 11.4911C3.8817 11.7255 3.75 12.0435 3.75 12.375V15.5H1.875V12.375C1.87599 11.5465 2.20555 10.7522 2.79139 10.1664C3.37722 9.58055 4.1715 9.25099 5 9.25H10C10.8285 9.25099 11.6228 9.58055 12.2086 10.1664C12.7944 10.7522 13.124 11.5465 13.125 12.375V15.5Z" fill="white"/>
<path d="M7.5 8C6.75832 8 6.0333 7.78007 5.41661 7.36801C4.79993 6.95596 4.31928 6.37029 4.03545 5.68506C3.75162 4.99984 3.67736 4.24584 3.82206 3.51841C3.96675 2.79098 4.3239 2.1228 4.84835 1.59835C5.3728 1.0739 6.04098 0.716751 6.76841 0.572057C7.49584 0.427362 8.24984 0.501625 8.93506 0.785453C9.62029 1.06928 10.206 1.54993 10.618 2.16661C11.0301 2.7833 11.25 3.50832 11.25 4.25C11.249 5.24426 10.8536 6.19751 10.1506 6.90056C9.44751 7.6036 8.49426 7.99901 7.5 8ZM7.5 2.375C7.12916 2.375 6.76665 2.48497 6.45831 2.691C6.14997 2.89702 5.90964 3.18986 5.76773 3.53247C5.62581 3.87508 5.58868 4.25208 5.66103 4.6158C5.73338 4.97951 5.91195 5.3136 6.17418 5.57583C6.4364 5.83805 6.77049 6.01663 7.13421 6.08897C7.49792 6.16132 7.87492 6.12419 8.21753 5.98228C8.56014 5.84036 8.85298 5.60004 9.05901 5.2917C9.26503 4.98335 9.375 4.62084 9.375 4.25C9.375 3.75272 9.17746 3.27581 8.82583 2.92418C8.4742 2.57255 7.99728 2.375 7.5 2.375Z" fill="white"/>
</g>
<defs>
<clipPath id="clip0_43_7953">
<rect width="15" height="15" fill="white" transform="translate(0 0.5)"/>
</clipPath>
</defs>
</svg>
