<svg width="26" height="26" viewBox="0 0 26 26" fill="none" xmlns="http://www.w3.org/2000/svg">
<path d="M22.75 25.9998H19.5V20.5832C19.5 20.0085 19.2717 19.4574 18.8654 19.0511C18.4591 18.6448 17.908 18.4165 17.3333 18.4165H8.66667C8.09203 18.4165 7.54093 18.6448 7.1346 19.0511C6.72827 19.4574 6.5 20.0085 6.5 20.5832V25.9998H3.25V20.5832C3.25172 19.1471 3.82296 17.7704 4.8384 16.7549C5.85385 15.7395 7.23061 15.1682 8.66667 15.1665H17.3333C18.7694 15.1682 20.1461 15.7395 21.1616 16.7549C22.177 17.7704 22.7483 19.1471 22.75 20.5832V25.9998Z" fill="white" fill-opacity="0.5"/>
<path d="M13 13C11.7144 13 10.4577 12.6188 9.3888 11.9046C8.31988 11.1903 7.48676 10.1752 6.99479 8.98745C6.50282 7.79973 6.37409 6.49279 6.6249 5.23192C6.8757 3.97104 7.49477 2.81285 8.40381 1.90381C9.31285 0.994768 10.471 0.375703 11.7319 0.124899C12.9928 -0.125905 14.2997 0.00281636 15.4874 0.494786C16.6752 0.986756 17.6903 1.81988 18.4046 2.8888C19.1188 3.95772 19.5 5.21442 19.5 6.5C19.4983 8.22338 18.8129 9.87568 17.5943 11.0943C16.3757 12.3129 14.7234 12.9983 13 13ZM13 3.25C12.3572 3.25 11.7289 3.44061 11.1944 3.79773C10.6599 4.15484 10.2434 4.66242 9.99739 5.25628C9.75141 5.85014 9.68705 6.50361 9.81245 7.13405C9.93785 7.76449 10.2474 8.34358 10.7019 8.7981C11.1564 9.25262 11.7355 9.56215 12.366 9.68756C12.9964 9.81296 13.6499 9.7486 14.2437 9.50261C14.8376 9.25663 15.3452 8.84007 15.7023 8.30561C16.0594 7.77115 16.25 7.14279 16.25 6.5C16.25 5.63805 15.9076 4.8114 15.2981 4.20191C14.6886 3.59241 13.862 3.25 13 3.25Z" fill="white" fill-opacity="0.5"/>
</svg>
