<svg width="15" height="15" viewBox="0 0 15 15" fill="none" xmlns="http://www.w3.org/2000/svg">
<g clip-path="url(#clip0_210_12349)">
<path d="M13.125 15H11.25V11.875C11.25 11.5435 11.1183 11.2255 10.8839 10.9911C10.6495 10.7567 10.3315 10.625 10 10.625H5C4.66848 10.625 4.35054 10.7567 4.11612 10.9911C3.8817 11.2255 3.75 11.5435 3.75 11.875V15H1.875V11.875C1.87599 11.0465 2.20555 10.2522 2.79139 9.66639C3.37722 9.08055 4.1715 8.75099 5 8.75H10C10.8285 8.75099 11.6228 9.08055 12.2086 9.66639C12.7944 10.2522 13.124 11.0465 13.125 11.875V15Z" fill="#252736"/>
<path d="M7.5 7.5C6.75832 7.5 6.0333 7.28007 5.41661 6.86801C4.79993 6.45596 4.31928 5.87029 4.03545 5.18506C3.75162 4.49984 3.67736 3.74584 3.82206 3.01841C3.96675 2.29098 4.3239 1.6228 4.84835 1.09835C5.3728 0.573904 6.04098 0.216751 6.76841 0.0720569C7.49584 -0.0726377 8.24984 0.00162482 8.93506 0.285453C9.62029 0.569282 10.206 1.04993 10.618 1.66661C11.0301 2.2833 11.25 3.00832 11.25 3.75C11.249 4.74426 10.8536 5.69751 10.1506 6.40056C9.44751 7.1036 8.49426 7.49901 7.5 7.5ZM7.5 1.875C7.12916 1.875 6.76665 1.98497 6.45831 2.191C6.14997 2.39702 5.90964 2.68986 5.76773 3.03247C5.62581 3.37508 5.58868 3.75208 5.66103 4.1158C5.73338 4.47951 5.91195 4.8136 6.17418 5.07583C6.4364 5.33805 6.77049 5.51663 7.13421 5.58897C7.49792 5.66132 7.87492 5.62419 8.21753 5.48228C8.56014 5.34036 8.85298 5.10004 9.05901 4.7917C9.26503 4.48335 9.375 4.12084 9.375 3.75C9.375 3.25272 9.17746 2.77581 8.82583 2.42418C8.4742 2.07255 7.99728 1.875 7.5 1.875Z" fill="#252736"/>
</g>
<defs>
<clipPath id="clip0_210_12349">
<rect width="15" height="15" fill="white"/>
</clipPath>
</defs>
</svg>
